<svg xmlns="http://www.w3.org/2000/svg" width="400px" height="200px"><path d="M55.7 0.8C54.5 1.9 54 3.2 54 5.2 54 7.7 54.7 8.1 60.9 9.3 71.9 11.5 73.2 13 81.5 34.2 82.8 37.6 85.6 45.3 90 57.8 91.1 60.9 92.5 64.3 93 65.4 93.5 66.5 94.3 68.5 94.7 69.8 95.7 72.8 99.8 84 102.6 91.6 106.1 100.9 106 101.2 94.1 113.8 93.3 114.7 90.8 117.3 88.7 119.6 74 135.2 68.4 141.2 64 145.8 61.2 148.7 58.1 152 57 153.2 32.9 180.6 22.9 187.4 4 189.4 0.6 189.8 0 190.3 0 193.1 0 195.9 0.9 197.6 2.3 197.6 2.9 197.6 9.4 197.4 16.8 197.2 26.9 196.8 34.4 196.8 47.2 197.2L64.2 197.7 64.9 196.8C65.4 196.2 65.6 195.2 65.6 193.6 65.6 190 65.4 189.9 57.6 188.6 46.9 186.8 46.5 185.8 53 178.7 54.1 177.5 56.3 175 57.8 173 60.3 169.9 64.4 165.1 69.8 158.8 70.9 157.6 73.2 154.8 74.9 152.8 76.6 150.7 79.1 147.8 80.4 146.4 81.8 145 83.4 143.2 83.9 142.4 85.4 140.5 89.6 135.6 93 132 94.5 130.3 97.7 126.7 100.1 124 105.6 117.6 110.8 112.1 110.8 112.8 110.8 113 111.9 116.1 113.2 119.5 114.6 123 116.5 128.1 117.5 130.8 118.5 133.6 119.5 136.2 119.8 136.7 120.1 137.1 121.1 139.6 122 142.1 125.1 151.2 129.6 163.5 131.4 168.4 135 177.9 135.6 179.8 135.6 181.8 135.6 186.2 133.4 187.5 123.1 189 119.6 189.5 116.5 190.1 116.3 190.3 115.5 191.1 115.4 194.9 116.2 196.3 116.9 197.8 115 197.8 135.4 197.2 147 196.8 154.6 196.8 167.3 197.2 186.2 197.7 184.9 197.9 185.4 194.5 185.9 191.3 185.8 191.2 180.7 191.2 166.2 191.2 154.4 179.9 154.4 165.9 154.4 164 148.1 146.6 146.8 145 146.6 144.8 144.8 140.4 142.8 135.2 134.7 114.4 133.5 111.4 133.2 111 132.6 110.2 128 97.6 127.8 96.1 127.3 93.2 127.6 92.9 145.3 74.1 175.8 41.8 192.5 25.4 203.4 17 205.1 15.7 206.9 14.3 207.3 13.9 209.9 11.6 215.3 9.8 222.1 8.8 226.6 8.1 227.6 7.2 227.6 3.8 227.6 0.5 226.9 0.1 221.2 0.5 206.8 1.3 172.3 1.1 169.2 0.2 167.2-0.4 165.4 4.2 166.5 6.9L167.1 8.3 171.5 8.8C185.3 10.3 185.5 11.6 174.6 24.2 172.2 27 167.9 32.1 165 35.4 158.2 43.3 147.9 55 146 57 145.2 57.9 142.5 60.9 140 63.6 132.3 72.2 122.7 82 122.4 81.7 122.2 81.5 121.7 80.3 121.2 79 120.7 77.7 120.1 76.5 120 76.4 119.7 76.2 115.9 65.7 110.9 51 109 45.5 107.2 40.3 106.8 39.4 106.4 38.5 104.7 33.7 103 28.6 97.5 12.2 97.9 11.4 112.5 9.2 119.9 8.1 120.6 7.6 120.6 3.9 120.6 1.9 119.2-0.2 118.1 0.2 115.4 1.2 61.8 1.2 57.4 0.2 56.9 0 56.2 0.3 55.7 0.8M229.5 1.8C228.4 4.2 229.3 4.9 234.1 5.6 240.4 6.6 240.6 6.8 240.5 10.1 240.5 11.6 240.3 13 240.1 13.3 239.9 13.6 239.5 14.5 239.2 15.4 238.5 17.7 233.9 30.3 232.2 34.8 231.4 36.9 229.9 40.9 228.9 43.6 227.9 46.4 226.9 49 226.6 49.5 226.2 50 225.2 52.5 224.2 55.1 211 90.6 208.8 94.2 199.9 95 196.2 95.4 195.6 95.7 195.6 97.4 195.6 100.2 194.3 100 213.2 100L230.4 100 230.6 99.1C230.8 98.5 230.8 97.5 230.7 96.8L230.6 95.4 226.4 94.8C220 93.8 219.2 93.1 220 89.3 220.5 86.8 226.3 69.1 226.8 68.8 226.9 68.7 228 66.1 229.1 63 230.9 58 232.3 54.1 238.1 38 239 35.5 239.9 33.3 240 33.2 240.2 33.1 240.6 32.1 240.9 31 242.2 27.1 245.7 18.4 246 18.4 246.1 18.4 246.6 22.5 247.1 27.5 248.6 43.2 251.2 69 252.3 79.2 252.8 84.6 253.4 90.7 253.5 92.8 253.7 96.9 253.8 97.2 255.9 97.2 256.9 97.2 257.3 96.9 258.2 95.3 258.8 94.3 260.6 91.6 262.1 89.3 263.6 87.1 264.8 85.1 264.8 85 264.8 84.8 265.8 83.5 266.9 82 269.1 79.4 274.1 72.7 277 68.6 277.8 67.4 279 65.9 279.6 65.3 280.6 64.2 283.6 60.4 288.8 53.4 290.2 51.4 292.3 48.8 293.3 47.6 294.4 46.4 295.8 44.6 296.5 43.6 297.2 42.6 300.7 37.9 304.4 33.2 308.1 28.5 312.1 23.2 313.4 21.5 314.7 19.8 315.8 18.4 315.9 18.5 315.9 18.6 314.8 22.6 313.4 27.4 311.9 32.3 309.9 39 308.9 42.4 307.9 45.8 306.9 49.1 306.6 49.8 306.3 50.5 304.7 55.3 303.2 60.6 293.4 93.5 293.1 94.1 282.7 95.1 279.7 95.3 278.8 95.9 278.8 97.5 278.8 100.2 277.6 100 298.5 100 319.4 100 318.4 100.1 318.4 97.3 318.4 95.4 318.5 95.4 313.6 95 305.5 94.3 305.5 94.6 314.5 62 315.3 59.3 316.7 53.9 317.8 50.2 318.8 46.5 319.8 43 320 42.6 320.2 42.2 321.7 37.2 323.2 31.6 329.9 7.6 329.8 7.6 338.8 5.8 343.7 4.9 344.1 4.5 343.9 2.3L343.8 1 330.9 0.9C320.7 0.8 318 0.9 318 1.3 318 3.2 310 16.4 306.5 20.3 305.8 21.1 304.2 23.2 302.9 24.8 301.7 26.5 299.3 29.6 297.7 31.8 296 34 293.9 36.7 292.9 37.8 291.9 38.9 290.6 40.6 289.9 41.6 288.1 44.1 268.1 70.1 265.7 72.9L263.8 75.1 263.5 72.9C263.2 70.5 261.6 56.6 258.6 31.6 256.2 10.8 256 7.4 257.4 1.8L257.7 0.8 243.8 0.8 230 0.8 229.5 1.8M349.1 1.8C348.1 4 349 4.8 352.9 5.6 360.4 7.1 360.5 7.8 355.8 23.4 349.4 44.6 347.2 51.6 346.5 53.5 346 54.5 344.7 58.7 343.4 62.8 333.7 94.4 334.1 93.7 325.7 94.9 321.6 95.5 320 97.5 322 99.7 322.1 99.8 337.5 100 356.2 100L390.2 100 392.1 96.5C394.5 92.3 396.4 88.3 398.3 83.4L399.7 79.8 398.8 79.1C396.8 77.5 396 78 392.9 82.6 386.9 91.6 382.3 93.6 367 93.9 350.8 94.2 347.9 92.9 349.1 86.1 349.6 83.4 359.6 49.5 360 49.2 360.1 49.1 361.7 44.1 363.6 38 373.3 5.7 372.6 6.9 383 5.4 387 4.9 387.6 4.6 387.6 2.9 387.6 0.7 388.7 0.8 368.3 0.8L349.6 0.8 349.1 1.8M233.5 137.3C216.3 138.6 205.7 155.6 209.8 175.7 211.8 185.8 218.3 193 227.1 195 235.3 197 249.1 194.4 250.4 190.8 251.1 188.7 250.9 186.7 250.1 187 227.7 195.7 213 182.1 218.2 157.7 220.7 145.7 232 139.5 243.4 143.8L245.2 144.5 245.2 149C245.2 154.1 245 153.7 248.4 154.2 250.6 154.5 250.6 154.6 251.2 149.8 251.9 144.4 251.6 141.3 250.2 140.2 247.4 138 240.4 136.7 233.5 137.3M277.6 137.2C264.2 138.3 256.3 148.3 255.7 164.4 255 185.2 263.3 195.6 280.6 195.6 297.3 195.6 305.3 186 305.4 166 305.4 145.7 295.8 135.8 277.6 137.2M335.8 137.2C329.8 137.8 326.9 139.2 323.1 143.1L320.4 145.9 320.3 142.2 320.2 138.6 314.4 138.6C306.8 138.6 305.9 139.1 305 143.1L304.7 144.4 309.2 144.4 313.6 144.4 313.6 166.3 313.6 188.3 311.4 188.5C305.6 189.2 304.4 190 304.4 193.1 304.4 193.5 307.2 193.6 317.2 193.6L330 193.6 330 191.8C330 189.5 329.6 189.3 325.1 188.7L321.2 188.2 321.2 169.7 321.2 151.2 322.4 149.8C330 141.3 343.8 141.4 347.4 150.2 348.8 153.4 349.6 187.8 348.3 188.2 348 188.3 346.5 188.5 344.9 188.8 341.4 189.4 340.8 189.8 340.5 191.9L340.3 193.6 352.5 193.6 364.8 193.6 364.8 191.6C364.8 189.3 364.9 189.3 359.5 188.7L355.6 188.3 355.6 169.8 355.6 151.4 357.7 149.3C358.9 148.1 360 147.2 360.1 147.2 360.3 147.2 361.1 146.8 361.9 146.3 368.5 142.1 377.1 142.6 380.4 147.3 383 151.1 383 151.2 383.1 170.6L383.3 188.3 381.1 188.5C377.3 189 376.1 189.5 375.6 190.9 374.6 193.8 373.8 193.6 387.6 193.6L400 193.6 400 191.6C400 189.3 400 189.3 394.6 188.7L390.6 188.3 390.7 170.6C390.9 148.5 390.6 146.6 386.4 141.6 381.4 135.7 367.7 135.4 360.1 141 357.8 142.7 354.8 145.8 354.8 146.5 354.8 146.8 354.2 145.8 353.6 144.5 350.7 138.7 344.9 136.3 335.8 137.2M287.2 144.1C301.9 151.2 302.2 182 287.7 188.7 272.4 195.7 259.4 179 263.8 158.1 266.3 145.9 277.4 139.4 287.2 144.1"/><path d="M154.5 167C154.5 168.1 154.6 168.5 154.7 167.9 154.8 167.3 154.8 166.4 154.7 165.9 154.6 165.4 154.5 165.9 154.5 167M167.2 187.8C167.2 188.1 169.6 189.3 169.8 189.1 169.9 189 169.4 188.6 168.6 188.3 167.8 187.9 167.2 187.7 167.2 187.8" fill="#320001"/><path d="M178.5 191.1C179.6 191.2 181.2 191.2 182.1 191.1 183 191 182.2 190.9 180.2 190.9 178.2 190.9 177.5 191 178.5 191.1" fill="#8f0006"/><path d="M174.4 140.4C173 140.7 172.8 140.8 168.6 142.9 151.3 151.3 149.9 175 166.2 186.5 172.4 190.8 184.7 192.3 190.8 189.3 211.9 179.2 211.1 151.2 189.4 141.7 186 140.1 178.1 139.5 174.4 140.4" fill="#ff000c"/></svg>
